<svg xmlns="http://www.w3.org/2000/svg" width="81.798" height="59.846" viewBox="0 0 81.798 59.846">
  <path id="Path_16" data-name="Path 16" d="M70.221,68.7H11.577A11.59,11.59,0,0,0,0,80.278V116.97a11.59,11.59,0,0,0,11.577,11.577H70.221A11.59,11.59,0,0,0,81.8,116.97V80.278A11.59,11.59,0,0,0,70.221,68.7Zm6.784,48.269a6.792,6.792,0,0,1-6.784,6.784H11.577a6.792,6.792,0,0,1-6.784-6.784V80.278a6.792,6.792,0,0,1,6.784-6.784H70.221a6.792,6.792,0,0,1,6.784,6.784Z" transform="translate(0 -68.701)" fill="#e5e5e5"/>
</svg>
