<svg xmlns="http://www.w3.org/2000/svg" width="92.031" height="92.031" viewBox="0 0 92.031 92.031">
  <path id="graphic-design" d="M91.534,30.214l-7.154-7.154a1.7,1.7,0,0,0-2.4,0l-2.8,2.8a38.434,38.434,0,0,0-35.408-4.4l11-11a5.533,5.533,0,0,0,6.434-8.837,5.532,5.532,0,0,0-8.836,6.434L34.992,25.435l-2.376-2.376a1.7,1.7,0,0,0-2.4,0l-7.154,7.154a1.7,1.7,0,0,0,0,2.4l2.376,2.376L8.055,52.372a5.535,5.535,0,1,0,2.4,2.4l11-11a38.432,38.432,0,0,0,4.4,35.407l-2.8,2.8a1.7,1.7,0,0,0,0,2.4l7.154,7.154a1.7,1.7,0,0,0,2.4,0l7.154-7.154a1.7,1.7,0,0,0,0-2.4l-7.154-7.154a1.7,1.7,0,0,0-2.4,0l-1.908,1.908a34.99,34.99,0,0,1,0-38.869l1.909,1.908a1.7,1.7,0,0,0,2.4,0l7.154-7.154a1.7,1.7,0,0,0,0-2.4L37.862,28.3a34.993,34.993,0,0,1,38.869,0l-1.908,1.908a1.7,1.7,0,0,0,0,2.4l7.154,7.154a1.7,1.7,0,0,0,2.4,0l7.154-7.154A1.7,1.7,0,0,0,91.534,30.214ZM31.415,78.427l4.751,4.751-4.751,4.751-4.752-4.751Zm24.371-74.4a2.135,2.135,0,1,1,0,3.021h0A2.138,2.138,0,0,1,55.787,4.023ZM7.043,58.806a2.135,2.135,0,1,1,0-3.021h0A2.138,2.138,0,0,1,7.043,58.806Zm24.372-22.64L29.04,33.791h0l-2.375-2.375,4.751-4.751,2.372,2.371,0,0,0,0,.217.217.013.013,2.142,2.142Zm51.763,0-4.751-4.751,4.751-4.751,4.751,4.751Z" fill="#e5e5e5"/>
</svg>
