<svg xmlns="http://www.w3.org/2000/svg" width="81.798" height="59.846" viewBox="0 0 81.798 59.846">
  <g id="programming" transform="translate(0 -68.701)">
    <path id="Path_13" data-name="Path 13" d="M87.941,159.085,74.068,172.957a2.4,2.4,0,0,0,0,3.389l12.525,12.525a2.4,2.4,0,0,0,3.389-3.389L79.152,174.652,91.33,162.474a2.4,2.4,0,1,0-3.389-3.389Z" transform="translate(-61.645 -75.354)" fill="#e5e5e5"/>
    <path id="Path_14" data-name="Path 14" d="M327.239,159.085a2.4,2.4,0,1,0-3.389,3.389l10.831,10.831L322.5,185.483a2.4,2.4,0,0,0,3.389,3.389L339.764,175a2.4,2.4,0,0,0,0-3.389Z" transform="translate(-270.389 -75.355)" fill="#e5e5e5"/>
    <path id="Path_15" data-name="Path 15" d="M216.939,128.835a2.4,2.4,0,0,0-3.058,1.462l-12.672,35.882a2.4,2.4,0,1,0,4.519,1.6L218.4,131.893A2.4,2.4,0,0,0,216.939,128.835Z" transform="translate(-168.948 -50.411)" fill="#e5e5e5"/>
    <path id="Path_16" data-name="Path 16" d="M70.221,68.7H11.577A11.59,11.59,0,0,0,0,80.278V116.97a11.59,11.59,0,0,0,11.577,11.577H70.221A11.59,11.59,0,0,0,81.8,116.97V80.278A11.59,11.59,0,0,0,70.221,68.7Zm6.784,48.269a6.792,6.792,0,0,1-6.784,6.784H11.577a6.792,6.792,0,0,1-6.784-6.784V80.278a6.792,6.792,0,0,1,6.784-6.784H70.221a6.792,6.792,0,0,1,6.784,6.784Z" fill="#e5e5e5"/>
  </g>
</svg>
